<?xml version="1.0" standalone="no"?>
<!DOCTYPE svg PUBLIC "-//W3C//DTD SVG 20010904//EN"
 "http://www.w3.org/TR/2001/REC-SVG-20010904/DTD/svg10.dtd">
<svg version="1.0" xmlns="http://www.w3.org/2000/svg"
 width="660.000000pt" height="295.000000pt" viewBox="0 0 660.000000 295.000000"
 preserveAspectRatio="xMidYMid meet">

<g transform="translate(0.000000,295.000000) scale(0.100000,-0.100000)"
fill="#000000" stroke="none">
<path d="M4843 2873 c-29 -38 -117 -162 -197 -278 -80 -115 -161 -232 -180
-260 -19 -27 -38 -63 -41 -80 l-7 -30 21 25 c11 14 104 139 207 278 102 138
190 252 195 252 5 0 9 -9 9 -19 0 -32 -59 -190 -107 -286 -77 -152 -212 -374
-240 -392 -15 -10 -139 -52 -276 -94 l-248 -77 7 65 c11 109 -13 105 -144 -21
-85 -82 -112 -123 -87 -132 9 -4 41 -4 71 0 64 7 61 14 38 -118 -52 -300 -154
-583 -340 -945 -94 -183 -107 -221 -79 -221 22 0 36 16 197 235 82 110 200
270 263 355 63 85 174 235 245 332 72 97 146 190 166 206 24 20 67 38 132 56
53 14 153 41 222 61 182 51 260 65 407 74 111 6 137 10 160 28 17 12 28 30 28
44 0 48 -34 42 -708 -123 -92 -22 -170 -38 -173 -35 -4 3 9 28 28 54 19 26 51
76 72 111 64 106 9 87 931 322 307 78 323 82 403 76 90 -6 125 2 141 33 19 35
4 51 -50 51 -43 0 -525 -116 -1099 -265 -96 -25 -183 -44 -192 -43 -13 2 8 47
100 213 65 116 132 246 149 290 57 144 80 316 43 322 -9 2 -37 -26 -67 -64z
m-394 -895 c-29 -55 -124 -192 -153 -221 -21 -21 -57 -40 -106 -56 -110 -34
-210 -74 -210 -83 0 -14 75 -8 155 12 43 11 82 20 87 20 11 0 -88 -144 -201
-295 -97 -129 -352 -455 -357 -455 -1 0 19 53 45 118 87 211 165 476 226 763
l16 76 247 71 c136 39 251 71 255 71 4 1 2 -9 -4 -21z"/>
<path d="M1089 2907 c-92 -28 -135 -52 -319 -185 -207 -149 -319 -241 -445
-367 -249 -249 -363 -483 -297 -611 59 -114 227 -264 298 -264 69 0 101 75 39
93 -89 26 -239 130 -268 187 -29 56 -20 148 24 241 112 235 368 493 729 734
156 104 211 127 309 129 100 1 101 -2 74 -146 -33 -182 -140 -445 -414 -1023
-55 -117 -58 -120 -167 -156 -102 -33 -132 -51 -132 -79 0 -9 12 -50 26 -91
32 -91 30 -166 -8 -254 -14 -33 -57 -132 -96 -221 -61 -141 -217 -551 -267
-702 -21 -64 -11 -85 29 -58 18 11 66 100 160 290 180 367 184 384 51 186 -42
-63 -75 -108 -72 -100 26 80 233 578 238 572 11 -12 28 -148 40 -317 6 -88 16
-166 22 -172 5 -7 18 -13 28 -13 39 0 59 39 354 685 75 165 143 310 150 321
15 24 47 33 330 94 174 37 365 98 337 108 -9 3 -487 -84 -614 -112 -10 -2 -18
-3 -18 -1 0 1 38 87 85 190 84 184 130 297 218 530 121 319 130 355 89 355
-24 -1 -46 -20 -65 -55 -22 -44 -67 -204 -67 -241 0 -34 -41 -140 -181 -466
-110 -258 -133 -304 -162 -322 -22 -14 -239 -66 -277 -66 -11 0 -20 4 -20 9 0
4 54 118 119 252 153 313 240 517 316 742 45 133 60 281 31 310 -24 24 -113
21 -207 -6z m21 -1332 c0 -7 -61 -146 -136 -307 -74 -161 -165 -357 -201 -435
-36 -79 -69 -143 -74 -143 -8 0 -14 34 -29 165 -6 50 -17 131 -26 181 -15 83
-15 97 0 155 17 67 122 294 149 321 9 8 64 27 124 41 164 40 193 43 193 22z
m-410 -94 c0 -6 -16 -45 -37 -88 l-36 -78 -8 45 c-14 84 -12 95 24 113 37 18
57 21 57 8z"/>
<path d="M2576 1634 c-154 -42 -215 -80 -201 -123 10 -33 51 -26 127 20 38 23
71 39 74 36 3 -3 -25 -39 -64 -79 -115 -120 -172 -192 -172 -215 0 -32 20 -29
115 12 88 38 116 43 135 20 25 -30 -18 -148 -80 -219 -17 -18 -110 -92 -208
-162 -275 -200 -461 -351 -576 -469 -71 -72 -166 -194 -166 -212 0 -44 133 34
394 231 164 123 255 204 436 389 85 87 184 180 220 207 72 53 240 147 240 133
0 -4 -9 -22 -19 -40 -28 -44 -52 -120 -45 -138 4 -9 15 -20 25 -26 29 -15 78
11 173 90 47 39 89 71 94 71 4 0 14 -22 21 -49 7 -27 18 -57 25 -67 13 -17 14
-16 26 6 31 58 20 223 -16 237 -11 4 -45 -24 -104 -84 -131 -132 -191 -154
-139 -51 37 74 111 157 162 185 26 13 34 13 78 -3 49 -18 49 -18 74 6 30 28
33 65 6 80 -60 32 -166 -7 -253 -93 -46 -46 -76 -64 -165 -101 -59 -26 -111
-46 -115 -46 -5 0 -8 40 -8 89 0 119 -8 127 -117 121 -24 -1 -43 1 -43 5 0 3
43 53 95 111 65 72 95 113 95 130 0 30 -9 30 -124 -2z m-336 -850 c-146 -146
-480 -417 -496 -401 -10 10 115 144 207 224 145 123 375 293 398 293 3 0 -46
-52 -109 -116z"/>
<path d="M6175 1458 c-91 -32 -255 -207 -255 -272 0 -28 -51 -45 -79 -27 -11
7 -11 23 5 98 15 77 16 95 5 122 -14 34 -45 47 -85 37 -24 -6 -150 -147 -199
-223 -28 -43 -41 -50 -66 -34 -11 7 -11 23 4 97 16 82 17 92 2 127 -13 30 -21
37 -44 37 -41 -1 -65 -17 -133 -95 -139 -157 -195 -290 -142 -338 37 -34 92
-18 187 53 58 43 80 55 116 63 26 7 26 6 21 -43 -6 -61 14 -90 63 -90 32 0
130 53 173 93 27 25 145 69 182 68 14 -1 46 -2 73 -3 26 -1 47 -6 47 -12 0 -5
-9 -28 -20 -51 -15 -31 -34 -49 -73 -70 -95 -51 -425 -256 -442 -275 -18 -20
-13 -40 11 -40 8 0 66 22 128 49 62 27 136 56 165 65 l52 15 -7 -22 c-3 -12
-59 -116 -124 -232 -194 -346 -280 -506 -280 -520 0 -18 28 -27 48 -16 28 15
56 50 137 171 118 175 201 282 339 433 126 138 156 179 156 216 0 26 -41 57
-85 65 l-36 7 27 49 c22 41 35 52 93 78 36 17 109 44 161 60 52 17 112 37 132
46 37 16 58 36 38 36 -21 0 -204 -49 -277 -74 -40 -14 -73 -23 -73 -21 0 2 36
77 80 166 44 88 80 169 80 178 0 39 -43 51 -105 29z m15 -81 c0 -35 -121 -177
-150 -177 -15 0 -12 47 4 78 17 33 61 74 101 95 37 20 45 21 45 4z m-750 -93
c0 -25 -5 -54 -11 -65 -10 -19 -12 -20 -29 -4 -20 18 -16 50 11 93 21 33 29
27 29 -24z m340 4 c0 -84 -17 -106 -46 -62 -12 17 -11 26 7 62 12 23 25 42 30
42 5 0 9 -19 9 -42z m-444 -140 l26 -52 -27 -24 c-17 -14 -37 -22 -54 -20 -23
3 -26 7 -25 39 1 31 37 109 50 109 2 0 16 -23 30 -52z m345 -6 l24 -44 -29
-25 c-18 -15 -38 -23 -55 -21 -23 3 -26 7 -25 39 1 39 42 116 54 102 4 -4 18
-28 31 -51z m249 -232 c-11 -21 -48 -40 -78 -40 -9 0 4 13 28 29 54 35 64 38
50 11z m120 -85 c9 -11 10 -22 3 -38 -9 -19 -256 -313 -300 -357 -14 -14 22
58 133 266 63 118 130 170 164 129z"/>
<path d="M1768 1420 c-27 -20 -148 -309 -148 -350 0 -56 116 21 205 135 l60
77 5 -48 c6 -56 15 -74 36 -74 24 0 72 28 115 67 l40 36 37 -41 c40 -43 86
-62 104 -44 8 8 5 24 -14 59 -14 27 -33 72 -43 101 -12 37 -22 52 -35 52 -18
0 -82 -64 -115 -113 -9 -15 -21 -27 -25 -27 -4 0 -14 33 -21 73 -13 67 -16 72
-41 75 -23 3 -33 -5 -60 -44 -77 -110 -119 -164 -128 -164 -13 0 25 94 61 151
32 51 37 84 13 93 -21 8 -18 9 -46 -14z"/>
<path d="M1475 1418 c-129 -46 -307 -286 -297 -399 2 -22 37 -30 70 -18 28 11
159 108 188 140 27 30 39 23 53 -30 7 -27 18 -57 26 -68 13 -17 15 -15 29 19
28 67 15 211 -21 225 -11 4 -38 -18 -87 -69 -69 -71 -149 -138 -168 -138 -38
0 53 159 131 228 43 38 65 43 121 25 50 -16 51 -16 75 7 30 28 32 65 6 80 -25
13 -87 12 -126 -2z"/>
<path d="M4793 1403 c-17 -6 -233 -446 -233 -473 0 -22 30 -8 78 35 35 32 64
72 97 138 26 50 56 106 67 124 l19 32 46 -21 c72 -32 164 -30 234 4 52 26 108
73 98 83 -3 2 -29 -7 -59 -21 -65 -31 -154 -41 -190 -22 -14 7 -35 33 -46 57
-30 63 -65 83 -111 64z"/>
<path d="M4433 1300 c-91 -41 -192 -148 -251 -266 -45 -89 -47 -138 -6 -148
33 -9 83 20 181 103 39 34 76 61 81 61 4 0 14 -22 21 -49 7 -27 18 -57 25 -67
13 -17 14 -16 26 6 31 58 20 223 -16 237 -11 4 -45 -23 -104 -84 -130 -132
-192 -155 -139 -51 33 65 108 154 151 178 38 21 40 21 88 4 l50 -18 25 24 c30
28 33 65 6 80 -30 16 -92 12 -138 -10z"/>
</g>
</svg>
